# xmcd CD database file
#
# Track frame offsets:
#	150
#	38825
#	59305
#	77178
#	103280
#	127435
#
# Disc length: 2065 seconds
#
# Revision: 0
# Processed by: cddbd v1.5.1PL0 Copyright (c) Steve Scherf et al.
# Submitted via: CDex 1.51
#
DISCID=56080f06
DTITLE=Willis Jackson - Please Mr. Jackson
DYEAR=1959
DGENRE=Jazz
TTITLE0=Cool Grits
TTITLE1=Come Back to Sorrento
TTITLE2=Dink's Mood
TTITLE3=Please Mr. Jackson
TTITLE4=633 Knock
TTITLE5=Memories of You
EXTD=YEAR: 1959
EXTT0=
EXTT1=
EXTT2=
EXTT3=
EXTT4=
EXTT5=
PLAYORDER=
